<mxfile host="app.diagrams.net" modified="2022-01-24T17:33:20.714Z" agent="5.0 (Windows NT 10.0; Win64; x64) AppleWebKit/537.36 (KHTML, like Gecko) Chrome/96.0.4664.110 Safari/537.36" etag="C9d97osix0dLtXkKXlXF" version="16.4.2" type="github" pages="3">
  <diagram id="T849AgaAMUV6qUk71AnG" name="Page-1">
    <mxGraphModel dx="1038" dy="547" grid="1" gridSize="10" guides="1" tooltips="1" connect="1" arrows="1" fold="1" page="1" pageScale="1" pageWidth="827" pageHeight="1169" math="0" shadow="0">
      <root>
        <mxCell id="0" />
        <mxCell id="1" parent="0" />
        <mxCell id="rFgkqmWRGbolhcBjv8Z4-61" value="" style="rounded=0;whiteSpace=wrap;html=1;fontColor=#FF3333;strokeColor=#000000;fillColor=#FFFFFF;" parent="1" vertex="1">
          <mxGeometry x="90" y="290" width="600" height="30" as="geometry" />
        </mxCell>
        <mxCell id="rFgkqmWRGbolhcBjv8Z4-1" value="Transformer Encoder" style="rounded=1;whiteSpace=wrap;html=1;fillColor=#dae8fc;strokeColor=#6c8ebf;" parent="1" vertex="1">
          <mxGeometry x="80" y="430" width="120" height="60" as="geometry" />
        </mxCell>
        <mxCell id="rFgkqmWRGbolhcBjv8Z4-3" value="Transformer Encoder" style="rounded=1;whiteSpace=wrap;html=1;fillColor=#dae8fc;strokeColor=#6c8ebf;" parent="1" vertex="1">
          <mxGeometry x="315" y="430" width="120" height="60" as="geometry" />
        </mxCell>
        <mxCell id="rFgkqmWRGbolhcBjv8Z4-4" value="Transformer Encoder" style="rounded=1;whiteSpace=wrap;html=1;fillColor=#dae8fc;strokeColor=#6c8ebf;" parent="1" vertex="1">
          <mxGeometry x="585" y="430" width="120" height="60" as="geometry" />
        </mxCell>
        <mxCell id="rFgkqmWRGbolhcBjv8Z4-5" value="" style="endArrow=none;dashed=1;html=1;dashPattern=1 3;strokeWidth=2;rounded=0;" parent="1" edge="1">
          <mxGeometry width="50" height="50" relative="1" as="geometry">
            <mxPoint x="455" y="459.5" as="sourcePoint" />
            <mxPoint x="565" y="460" as="targetPoint" />
          </mxGeometry>
        </mxCell>
        <mxCell id="rFgkqmWRGbolhcBjv8Z4-7" value="&lt;font color=&quot;#ff3333&quot;&gt;[para1]&lt;/font&gt; Paraphrase generation ... generation." style="text;html=1;align=center;verticalAlign=middle;resizable=0;points=[];autosize=1;strokeColor=none;fillColor=none;" parent="1" vertex="1">
          <mxGeometry x="15" y="510" width="250" height="20" as="geometry" />
        </mxCell>
        <mxCell id="rFgkqmWRGbolhcBjv8Z4-8" value="&lt;font color=&quot;#ff3333&quot;&gt;[para2]&lt;/font&gt; Document-level ... model." style="text;html=1;align=center;verticalAlign=middle;resizable=0;points=[];autosize=1;strokeColor=none;fillColor=none;" parent="1" vertex="1">
          <mxGeometry x="280" y="510" width="190" height="20" as="geometry" />
        </mxCell>
        <mxCell id="rFgkqmWRGbolhcBjv8Z4-9" value="&lt;font color=&quot;#ff3333&quot;&gt;[para50]&lt;/font&gt; Most of the previous ... graph GRU." style="text;html=1;align=center;verticalAlign=middle;resizable=0;points=[];autosize=1;strokeColor=none;fillColor=none;" parent="1" vertex="1">
          <mxGeometry x="520" y="510" width="250" height="20" as="geometry" />
        </mxCell>
        <mxCell id="rFgkqmWRGbolhcBjv8Z4-10" value="" style="endArrow=classic;html=1;rounded=0;fontColor=#FF3333;" parent="1" edge="1">
          <mxGeometry width="50" height="50" relative="1" as="geometry">
            <mxPoint x="139.5" y="430" as="sourcePoint" />
            <mxPoint x="140" y="390" as="targetPoint" />
          </mxGeometry>
        </mxCell>
        <mxCell id="rFgkqmWRGbolhcBjv8Z4-11" value="" style="endArrow=classic;html=1;rounded=0;fontColor=#FF3333;" parent="1" edge="1">
          <mxGeometry width="50" height="50" relative="1" as="geometry">
            <mxPoint x="380" y="430" as="sourcePoint" />
            <mxPoint x="380.5" y="390" as="targetPoint" />
          </mxGeometry>
        </mxCell>
        <mxCell id="rFgkqmWRGbolhcBjv8Z4-13" value="" style="endArrow=classic;html=1;rounded=0;fontColor=#FF3333;" parent="1" edge="1">
          <mxGeometry width="50" height="50" relative="1" as="geometry">
            <mxPoint x="644.5" y="430" as="sourcePoint" />
            <mxPoint x="645" y="390" as="targetPoint" />
          </mxGeometry>
        </mxCell>
        <mxCell id="rFgkqmWRGbolhcBjv8Z4-15" value="" style="ellipse;whiteSpace=wrap;html=1;aspect=fixed;fontColor=#FF3333;strokeColor=#FF3333;fillColor=#FF3333;" parent="1" vertex="1">
          <mxGeometry x="30" y="370" width="10" height="10" as="geometry" />
        </mxCell>
        <mxCell id="rFgkqmWRGbolhcBjv8Z4-18" value="" style="ellipse;whiteSpace=wrap;html=1;aspect=fixed;fontColor=#FF3333;strokeColor=#000000;fillColor=#000000;" parent="1" vertex="1">
          <mxGeometry x="50" y="370" width="10" height="10" as="geometry" />
        </mxCell>
        <mxCell id="rFgkqmWRGbolhcBjv8Z4-19" value="" style="ellipse;whiteSpace=wrap;html=1;aspect=fixed;fontColor=#FF3333;strokeColor=#000000;fillColor=#000000;" parent="1" vertex="1">
          <mxGeometry x="70" y="370" width="10" height="10" as="geometry" />
        </mxCell>
        <mxCell id="rFgkqmWRGbolhcBjv8Z4-20" value="" style="ellipse;whiteSpace=wrap;html=1;aspect=fixed;fontColor=#FF3333;strokeColor=#000000;fillColor=#000000;" parent="1" vertex="1">
          <mxGeometry x="90" y="370" width="10" height="10" as="geometry" />
        </mxCell>
        <mxCell id="rFgkqmWRGbolhcBjv8Z4-21" value="" style="ellipse;whiteSpace=wrap;html=1;aspect=fixed;fontColor=#FF3333;strokeColor=#000000;fillColor=#000000;" parent="1" vertex="1">
          <mxGeometry x="110" y="370" width="10" height="10" as="geometry" />
        </mxCell>
        <mxCell id="rFgkqmWRGbolhcBjv8Z4-22" value="" style="ellipse;whiteSpace=wrap;html=1;aspect=fixed;fontColor=#FF3333;strokeColor=#000000;fillColor=#000000;" parent="1" vertex="1">
          <mxGeometry x="130" y="370" width="10" height="10" as="geometry" />
        </mxCell>
        <mxCell id="rFgkqmWRGbolhcBjv8Z4-23" value="" style="ellipse;whiteSpace=wrap;html=1;aspect=fixed;fontColor=#FF3333;strokeColor=#000000;fillColor=#000000;" parent="1" vertex="1">
          <mxGeometry x="150" y="370" width="10" height="10" as="geometry" />
        </mxCell>
        <mxCell id="rFgkqmWRGbolhcBjv8Z4-24" value="" style="ellipse;whiteSpace=wrap;html=1;aspect=fixed;fontColor=#FF3333;strokeColor=#000000;fillColor=#000000;" parent="1" vertex="1">
          <mxGeometry x="170" y="370" width="10" height="10" as="geometry" />
        </mxCell>
        <mxCell id="rFgkqmWRGbolhcBjv8Z4-25" value="" style="ellipse;whiteSpace=wrap;html=1;aspect=fixed;fontColor=#FF3333;strokeColor=#000000;fillColor=#000000;" parent="1" vertex="1">
          <mxGeometry x="190" y="370" width="10" height="10" as="geometry" />
        </mxCell>
        <mxCell id="rFgkqmWRGbolhcBjv8Z4-26" value="" style="ellipse;whiteSpace=wrap;html=1;aspect=fixed;fontColor=#FF3333;strokeColor=#000000;fillColor=#000000;" parent="1" vertex="1">
          <mxGeometry x="210" y="370" width="10" height="10" as="geometry" />
        </mxCell>
        <mxCell id="rFgkqmWRGbolhcBjv8Z4-37" value="" style="ellipse;whiteSpace=wrap;html=1;aspect=fixed;fontColor=#FF3333;strokeColor=#FF3333;fillColor=#FF3333;" parent="1" vertex="1">
          <mxGeometry x="280" y="370" width="10" height="10" as="geometry" />
        </mxCell>
        <mxCell id="rFgkqmWRGbolhcBjv8Z4-38" value="" style="ellipse;whiteSpace=wrap;html=1;aspect=fixed;fontColor=#FF3333;strokeColor=#000000;fillColor=#000000;" parent="1" vertex="1">
          <mxGeometry x="300" y="370" width="10" height="10" as="geometry" />
        </mxCell>
        <mxCell id="rFgkqmWRGbolhcBjv8Z4-39" value="" style="ellipse;whiteSpace=wrap;html=1;aspect=fixed;fontColor=#FF3333;strokeColor=#000000;fillColor=#000000;" parent="1" vertex="1">
          <mxGeometry x="320" y="370" width="10" height="10" as="geometry" />
        </mxCell>
        <mxCell id="rFgkqmWRGbolhcBjv8Z4-40" value="" style="ellipse;whiteSpace=wrap;html=1;aspect=fixed;fontColor=#FF3333;strokeColor=#000000;fillColor=#000000;" parent="1" vertex="1">
          <mxGeometry x="340" y="370" width="10" height="10" as="geometry" />
        </mxCell>
        <mxCell id="rFgkqmWRGbolhcBjv8Z4-41" value="" style="ellipse;whiteSpace=wrap;html=1;aspect=fixed;fontColor=#FF3333;strokeColor=#000000;fillColor=#000000;" parent="1" vertex="1">
          <mxGeometry x="360" y="370" width="10" height="10" as="geometry" />
        </mxCell>
        <mxCell id="rFgkqmWRGbolhcBjv8Z4-42" value="" style="ellipse;whiteSpace=wrap;html=1;aspect=fixed;fontColor=#FF3333;strokeColor=#000000;fillColor=#000000;" parent="1" vertex="1">
          <mxGeometry x="380" y="370" width="10" height="10" as="geometry" />
        </mxCell>
        <mxCell id="rFgkqmWRGbolhcBjv8Z4-43" value="" style="ellipse;whiteSpace=wrap;html=1;aspect=fixed;fontColor=#FF3333;strokeColor=#000000;fillColor=#000000;" parent="1" vertex="1">
          <mxGeometry x="400" y="370" width="10" height="10" as="geometry" />
        </mxCell>
        <mxCell id="rFgkqmWRGbolhcBjv8Z4-44" value="" style="ellipse;whiteSpace=wrap;html=1;aspect=fixed;fontColor=#FF3333;strokeColor=#000000;fillColor=#000000;" parent="1" vertex="1">
          <mxGeometry x="420" y="370" width="10" height="10" as="geometry" />
        </mxCell>
        <mxCell id="rFgkqmWRGbolhcBjv8Z4-45" value="" style="ellipse;whiteSpace=wrap;html=1;aspect=fixed;fontColor=#FF3333;strokeColor=#000000;fillColor=#000000;" parent="1" vertex="1">
          <mxGeometry x="440" y="370" width="10" height="10" as="geometry" />
        </mxCell>
        <mxCell id="rFgkqmWRGbolhcBjv8Z4-46" value="" style="ellipse;whiteSpace=wrap;html=1;aspect=fixed;fontColor=#FF3333;strokeColor=#000000;fillColor=#000000;" parent="1" vertex="1">
          <mxGeometry x="460" y="370" width="10" height="10" as="geometry" />
        </mxCell>
        <mxCell id="rFgkqmWRGbolhcBjv8Z4-47" value="" style="ellipse;whiteSpace=wrap;html=1;aspect=fixed;fontColor=#FF3333;strokeColor=#FF3333;fillColor=#FF3333;" parent="1" vertex="1">
          <mxGeometry x="530" y="370" width="10" height="10" as="geometry" />
        </mxCell>
        <mxCell id="rFgkqmWRGbolhcBjv8Z4-48" value="" style="ellipse;whiteSpace=wrap;html=1;aspect=fixed;fontColor=#FF3333;strokeColor=#000000;fillColor=#000000;" parent="1" vertex="1">
          <mxGeometry x="550" y="370" width="10" height="10" as="geometry" />
        </mxCell>
        <mxCell id="rFgkqmWRGbolhcBjv8Z4-49" value="" style="ellipse;whiteSpace=wrap;html=1;aspect=fixed;fontColor=#FF3333;strokeColor=#000000;fillColor=#000000;" parent="1" vertex="1">
          <mxGeometry x="570" y="370" width="10" height="10" as="geometry" />
        </mxCell>
        <mxCell id="rFgkqmWRGbolhcBjv8Z4-50" value="" style="ellipse;whiteSpace=wrap;html=1;aspect=fixed;fontColor=#FF3333;strokeColor=#000000;fillColor=#000000;" parent="1" vertex="1">
          <mxGeometry x="590" y="370" width="10" height="10" as="geometry" />
        </mxCell>
        <mxCell id="rFgkqmWRGbolhcBjv8Z4-51" value="" style="ellipse;whiteSpace=wrap;html=1;aspect=fixed;fontColor=#FF3333;strokeColor=#000000;fillColor=#000000;" parent="1" vertex="1">
          <mxGeometry x="610" y="370" width="10" height="10" as="geometry" />
        </mxCell>
        <mxCell id="rFgkqmWRGbolhcBjv8Z4-52" value="" style="ellipse;whiteSpace=wrap;html=1;aspect=fixed;fontColor=#FF3333;strokeColor=#000000;fillColor=#000000;" parent="1" vertex="1">
          <mxGeometry x="630" y="370" width="10" height="10" as="geometry" />
        </mxCell>
        <mxCell id="rFgkqmWRGbolhcBjv8Z4-53" value="" style="ellipse;whiteSpace=wrap;html=1;aspect=fixed;fontColor=#FF3333;strokeColor=#000000;fillColor=#000000;" parent="1" vertex="1">
          <mxGeometry x="650" y="370" width="10" height="10" as="geometry" />
        </mxCell>
        <mxCell id="rFgkqmWRGbolhcBjv8Z4-54" value="" style="ellipse;whiteSpace=wrap;html=1;aspect=fixed;fontColor=#FF3333;strokeColor=#000000;fillColor=#000000;" parent="1" vertex="1">
          <mxGeometry x="670" y="370" width="10" height="10" as="geometry" />
        </mxCell>
        <mxCell id="rFgkqmWRGbolhcBjv8Z4-55" value="" style="ellipse;whiteSpace=wrap;html=1;aspect=fixed;fontColor=#FF3333;strokeColor=#000000;fillColor=#000000;" parent="1" vertex="1">
          <mxGeometry x="690" y="370" width="10" height="10" as="geometry" />
        </mxCell>
        <mxCell id="rFgkqmWRGbolhcBjv8Z4-56" value="" style="ellipse;whiteSpace=wrap;html=1;aspect=fixed;fontColor=#FF3333;strokeColor=#000000;fillColor=#000000;" parent="1" vertex="1">
          <mxGeometry x="710" y="370" width="10" height="10" as="geometry" />
        </mxCell>
        <mxCell id="rFgkqmWRGbolhcBjv8Z4-58" value="" style="ellipse;whiteSpace=wrap;html=1;aspect=fixed;fontColor=#FF3333;strokeColor=#FF3333;fillColor=#FF3333;" parent="1" vertex="1">
          <mxGeometry x="130" y="300" width="10" height="10" as="geometry" />
        </mxCell>
        <mxCell id="rFgkqmWRGbolhcBjv8Z4-59" value="" style="ellipse;whiteSpace=wrap;html=1;aspect=fixed;fontColor=#FF3333;strokeColor=#FF3333;fillColor=#FF3333;" parent="1" vertex="1">
          <mxGeometry x="380" y="300" width="10" height="10" as="geometry" />
        </mxCell>
        <mxCell id="rFgkqmWRGbolhcBjv8Z4-60" value="" style="ellipse;whiteSpace=wrap;html=1;aspect=fixed;fontColor=#FF3333;strokeColor=#FF3333;fillColor=#FF3333;" parent="1" vertex="1">
          <mxGeometry x="640" y="300" width="10" height="10" as="geometry" />
        </mxCell>
        <mxCell id="rFgkqmWRGbolhcBjv8Z4-62" value="" style="endArrow=none;dashed=1;html=1;dashPattern=1 3;strokeWidth=2;rounded=0;" parent="1" edge="1">
          <mxGeometry width="50" height="50" relative="1" as="geometry">
            <mxPoint x="455" y="304.5" as="sourcePoint" />
            <mxPoint x="565" y="305" as="targetPoint" />
          </mxGeometry>
        </mxCell>
        <mxCell id="rFgkqmWRGbolhcBjv8Z4-64" value="&lt;font style=&quot;font-size: 18px&quot;&gt;Transformer Encoder&lt;/font&gt;" style="rounded=1;whiteSpace=wrap;html=1;strokeColor=#6c8ebf;fillColor=#dae8fc;" parent="1" vertex="1">
          <mxGeometry x="80" y="150" width="610" height="100" as="geometry" />
        </mxCell>
        <mxCell id="rFgkqmWRGbolhcBjv8Z4-66" value="" style="endArrow=classic;html=1;rounded=0;fontColor=#FF3333;" parent="1" edge="1">
          <mxGeometry width="50" height="50" relative="1" as="geometry">
            <mxPoint x="136.5" y="363" as="sourcePoint" />
            <mxPoint x="137" y="323" as="targetPoint" />
          </mxGeometry>
        </mxCell>
        <mxCell id="rFgkqmWRGbolhcBjv8Z4-67" value="" style="endArrow=classic;html=1;rounded=0;fontColor=#FF3333;" parent="1" edge="1">
          <mxGeometry width="50" height="50" relative="1" as="geometry">
            <mxPoint x="382.5" y="367" as="sourcePoint" />
            <mxPoint x="383" y="327" as="targetPoint" />
          </mxGeometry>
        </mxCell>
        <mxCell id="rFgkqmWRGbolhcBjv8Z4-68" value="" style="endArrow=classic;html=1;rounded=0;fontColor=#FF3333;" parent="1" edge="1">
          <mxGeometry width="50" height="50" relative="1" as="geometry">
            <mxPoint x="645.5" y="362" as="sourcePoint" />
            <mxPoint x="646" y="322" as="targetPoint" />
          </mxGeometry>
        </mxCell>
        <mxCell id="rFgkqmWRGbolhcBjv8Z4-69" value="" style="endArrow=classic;html=1;rounded=0;fontColor=#FF3333;" parent="1" edge="1">
          <mxGeometry width="50" height="50" relative="1" as="geometry">
            <mxPoint x="383.5" y="283" as="sourcePoint" />
            <mxPoint x="384" y="256" as="targetPoint" />
          </mxGeometry>
        </mxCell>
        <mxCell id="rFgkqmWRGbolhcBjv8Z4-70" value="&lt;font style=&quot;font-size: 18px&quot;&gt;Transformer Decoder&lt;/font&gt;" style="rounded=1;whiteSpace=wrap;html=1;strokeColor=#6c8ebf;fillColor=#dae8fc;" parent="1" vertex="1">
          <mxGeometry x="860" y="110" width="144" height="310" as="geometry" />
        </mxCell>
        <mxCell id="rFgkqmWRGbolhcBjv8Z4-71" value="&lt;font style=&quot;font-size: 12px&quot;&gt;&lt;font color=&quot;#009900&quot;&gt;[Secion1]&lt;/font&gt; &lt;font color=&quot;#cccc00&quot;&gt;[Subsection1]&lt;/font&gt; [para7] [para13] &lt;font color=&quot;#cccc00&quot;&gt;[Subsection2]&lt;/font&gt; [para1] ... &lt;font color=&quot;#009900&quot;&gt;[Section7]&lt;/font&gt; [para27] &lt;font color=&quot;#000000&quot;&gt;[END]&lt;/font&gt;&lt;/font&gt;" style="text;html=1;align=center;verticalAlign=middle;resizable=0;points=[];autosize=1;strokeColor=none;fillColor=none;fontSize=18;fontColor=#FF3333;" parent="1" vertex="1">
          <mxGeometry x="685" y="50" width="500" height="30" as="geometry" />
        </mxCell>
        <mxCell id="rFgkqmWRGbolhcBjv8Z4-72" value="&lt;font style=&quot;font-size: 12px&quot;&gt;&lt;font color=&quot;#000000&quot;&gt;[START]&lt;/font&gt;&lt;font color=&quot;#00994d&quot;&gt; [Secion1]&lt;/font&gt; &lt;font color=&quot;#cccc00&quot;&gt;[Subsection1]&lt;/font&gt; [para7] [para13] &lt;font color=&quot;#cccc00&quot;&gt;[Subsection2]&lt;/font&gt; [para1] ... &lt;font color=&quot;#009900&quot;&gt;[Section7]&lt;/font&gt; [para27]&amp;nbsp;&lt;/font&gt;" style="text;html=1;align=center;verticalAlign=middle;resizable=0;points=[];autosize=1;strokeColor=none;fillColor=none;fontSize=18;fontColor=#FF3333;" parent="1" vertex="1">
          <mxGeometry x="710" y="445" width="520" height="30" as="geometry" />
        </mxCell>
        <mxCell id="rFgkqmWRGbolhcBjv8Z4-78" value="" style="endArrow=classic;html=1;rounded=0;fontColor=#FF3333;" parent="1" edge="1">
          <mxGeometry width="50" height="50" relative="1" as="geometry">
            <mxPoint x="932.5" y="450" as="sourcePoint" />
            <mxPoint x="933" y="430" as="targetPoint" />
          </mxGeometry>
        </mxCell>
        <mxCell id="rFgkqmWRGbolhcBjv8Z4-79" value="" style="endArrow=classic;html=1;rounded=0;fontColor=#FF3333;" parent="1" edge="1">
          <mxGeometry width="50" height="50" relative="1" as="geometry">
            <mxPoint x="932.5" y="102" as="sourcePoint" />
            <mxPoint x="933" y="82" as="targetPoint" />
          </mxGeometry>
        </mxCell>
        <mxCell id="FSxNgMAy3b_CESZXmb4z-1" value="" style="shape=flexArrow;endArrow=classic;html=1;rounded=0;fontSize=14;fontColor=#FF8000;fillColor=#f8cecc;strokeColor=#b85450;" edge="1" parent="1">
          <mxGeometry width="50" height="50" relative="1" as="geometry">
            <mxPoint x="720" y="210" as="sourcePoint" />
            <mxPoint x="850" y="210" as="targetPoint" />
          </mxGeometry>
        </mxCell>
      </root>
    </mxGraphModel>
  </diagram>
  <diagram id="Waq9Eo4U-xXzvhxflZKZ" name="Page-2">
    <mxGraphModel dx="2125" dy="1853" grid="1" gridSize="10" guides="1" tooltips="1" connect="1" arrows="1" fold="1" page="1" pageScale="1" pageWidth="827" pageHeight="1169" math="0" shadow="0">
      <root>
        <mxCell id="tdUAThzpUZN2uWornedb-0" />
        <mxCell id="tdUAThzpUZN2uWornedb-1" parent="tdUAThzpUZN2uWornedb-0" />
        <mxCell id="gRdOGkt203B3cLI0ypPD-0" value="&lt;font&gt;&lt;font style=&quot;font-size: 24px&quot;&gt;Longformer Encoder&lt;/font&gt;&lt;br&gt;&lt;/font&gt;" style="rounded=1;whiteSpace=wrap;html=1;fillColor=#dae8fc;strokeColor=#6c8ebf;" vertex="1" parent="tdUAThzpUZN2uWornedb-1">
          <mxGeometry x="-490" y="330" width="1020" height="100" as="geometry" />
        </mxCell>
        <mxCell id="gRdOGkt203B3cLI0ypPD-1" value="&lt;font style=&quot;font-size: 14px&quot;&gt;&lt;font color=&quot;#ff3333&quot;&gt;[EDU-3]&lt;/font&gt; three of ... employees. &lt;font color=&quot;#ff3333&quot;&gt;[EDU-2]&lt;/font&gt; The appointment ... to 10. &lt;font color=&quot;#ff8000&quot;&gt;[conjuction]&lt;/font&gt;&lt;font color=&quot;#ff0000&quot;&gt; [EDU-1]&lt;/font&gt; Roy E.Parrot ... board &lt;font color=&quot;#0000cc&quot;&gt;[MASK]&lt;/font&gt;&lt;font color=&quot;#ff0000&quot;&gt; [EDU-4]&lt;/font&gt; Simpson ... maker.&lt;font color=&quot;#ff8000&quot;&gt; [elaboration]&lt;/font&gt;&amp;nbsp;&lt;/font&gt;" style="text;html=1;align=center;verticalAlign=middle;resizable=0;points=[];autosize=1;strokeColor=none;fillColor=none;fontSize=36;" vertex="1" parent="tdUAThzpUZN2uWornedb-1">
          <mxGeometry x="-470" y="430" width="1000" height="60" as="geometry" />
        </mxCell>
        <mxCell id="gRdOGkt203B3cLI0ypPD-2" value="&lt;font&gt;&lt;font style=&quot;font-size: 24px&quot;&gt;Transformer Decoder&lt;/font&gt;&lt;br&gt;&lt;/font&gt;" style="rounded=1;whiteSpace=wrap;html=1;fillColor=#dae8fc;strokeColor=#6c8ebf;" vertex="1" parent="tdUAThzpUZN2uWornedb-1">
          <mxGeometry x="680" y="330" width="330" height="100" as="geometry" />
        </mxCell>
        <mxCell id="IRpGyKqlCU75RXgYqztg-0" value="" style="shape=flexArrow;endArrow=classic;html=1;rounded=0;fontSize=14;fontColor=#0000CC;fillColor=#f8cecc;strokeColor=#b85450;" edge="1" parent="tdUAThzpUZN2uWornedb-1">
          <mxGeometry width="50" height="50" relative="1" as="geometry">
            <mxPoint x="550" y="379.29" as="sourcePoint" />
            <mxPoint x="670" y="379" as="targetPoint" />
          </mxGeometry>
        </mxCell>
        <mxCell id="IRpGyKqlCU75RXgYqztg-3" value="&lt;font style=&quot;font-size: 14px&quot;&gt;[START] &lt;font color=&quot;#ff3333&quot;&gt;[EDU-3]&lt;/font&gt;&amp;nbsp;&lt;font color=&quot;#ff3333&quot;&gt;[EDU-2]&lt;/font&gt;&amp;nbsp;&lt;font color=&quot;#ff8000&quot;&gt;[conjuction]&lt;/font&gt;&lt;font color=&quot;#ff0000&quot;&gt; [EDU-1]&lt;/font&gt;&amp;nbsp;[concession]&lt;font color=&quot;#ff0000&quot;&gt;[EDU-4]&lt;/font&gt;&lt;font color=&quot;#ff8000&quot;&gt;&amp;nbsp;[elaboration]&lt;/font&gt;&amp;nbsp;&lt;/font&gt;" style="text;html=1;align=center;verticalAlign=middle;resizable=0;points=[];autosize=1;strokeColor=none;fillColor=none;fontSize=36;" vertex="1" parent="tdUAThzpUZN2uWornedb-1">
          <mxGeometry x="575" y="430" width="520" height="60" as="geometry" />
        </mxCell>
        <mxCell id="IRpGyKqlCU75RXgYqztg-4" value="&lt;font style=&quot;font-size: 14px&quot;&gt;&lt;font color=&quot;#ff3333&quot;&gt;[EDU-3]&lt;/font&gt;&amp;nbsp;&lt;font color=&quot;#ff3333&quot;&gt;[EDU-2]&lt;/font&gt;&amp;nbsp;&lt;font color=&quot;#ff8000&quot;&gt;[conjuction]&lt;/font&gt;&lt;font color=&quot;#ff0000&quot;&gt; [EDU-1]&lt;/font&gt;&amp;nbsp;[concession]&lt;font color=&quot;#ff0000&quot;&gt;&amp;nbsp;[EDU-4]&lt;/font&gt;&lt;font color=&quot;#ff8000&quot;&gt;&amp;nbsp;[elaboration] &lt;/font&gt;[END]&amp;nbsp;&lt;/font&gt;" style="text;html=1;align=center;verticalAlign=middle;resizable=0;points=[];autosize=1;strokeColor=none;fillColor=none;fontSize=36;" vertex="1" parent="tdUAThzpUZN2uWornedb-1">
          <mxGeometry x="580" y="240" width="510" height="60" as="geometry" />
        </mxCell>
        <mxCell id="ZDn8CB6UmshJGRdJ2p5L-0" value="&lt;font&gt;&lt;font style=&quot;font-size: 24px&quot;&gt;Longformer Encoder&lt;/font&gt;&lt;br&gt;&lt;/font&gt;" style="rounded=1;whiteSpace=wrap;html=1;fillColor=#dae8fc;strokeColor=#6c8ebf;" vertex="1" parent="tdUAThzpUZN2uWornedb-1">
          <mxGeometry x="-490" y="665.5" width="1020" height="100" as="geometry" />
        </mxCell>
        <mxCell id="ZDn8CB6UmshJGRdJ2p5L-1" value="&lt;font style=&quot;font-size: 14px&quot;&gt;&lt;font color=&quot;#ff3333&quot;&gt;[EDU-3]&lt;/font&gt; three of ... employees. &lt;font color=&quot;#ff3333&quot;&gt;[EDU-2]&lt;/font&gt; [MASK]&amp;nbsp;&lt;font color=&quot;#ff8000&quot;&gt;[conjuction]&lt;/font&gt;&lt;font color=&quot;#ff0000&quot;&gt; [EDU-1]&lt;/font&gt; Roy E.Parrot ... board. &lt;font color=&quot;#ff8000&quot;&gt;[concession]&lt;/font&gt;&lt;font color=&quot;#ff0000&quot;&gt;&amp;nbsp;[EDU-4]&lt;/font&gt; Simpson ... maker.&lt;font color=&quot;#ff8000&quot;&gt; [elaboration]&lt;/font&gt;&amp;nbsp;&lt;/font&gt;" style="text;html=1;align=center;verticalAlign=middle;resizable=0;points=[];autosize=1;strokeColor=none;fillColor=none;fontSize=36;" vertex="1" parent="tdUAThzpUZN2uWornedb-1">
          <mxGeometry x="-430" y="765.5" width="920" height="60" as="geometry" />
        </mxCell>
        <mxCell id="ZDn8CB6UmshJGRdJ2p5L-2" value="&lt;font&gt;&lt;font style=&quot;font-size: 24px&quot;&gt;Transformer Decoder&lt;/font&gt;&lt;br&gt;&lt;/font&gt;" style="rounded=1;whiteSpace=wrap;html=1;fillColor=#dae8fc;strokeColor=#6c8ebf;" vertex="1" parent="tdUAThzpUZN2uWornedb-1">
          <mxGeometry x="680" y="665.5" width="460" height="100" as="geometry" />
        </mxCell>
        <mxCell id="ZDn8CB6UmshJGRdJ2p5L-3" value="" style="shape=flexArrow;endArrow=classic;html=1;rounded=0;fontSize=14;fontColor=#0000CC;fillColor=#f8cecc;strokeColor=#b85450;" edge="1" parent="tdUAThzpUZN2uWornedb-1">
          <mxGeometry width="50" height="50" relative="1" as="geometry">
            <mxPoint x="550" y="714.79" as="sourcePoint" />
            <mxPoint x="670" y="714.5" as="targetPoint" />
          </mxGeometry>
        </mxCell>
        <mxCell id="ZDn8CB6UmshJGRdJ2p5L-4" value="&lt;font style=&quot;font-size: 14px&quot;&gt;[START] &lt;font color=&quot;#ff3333&quot;&gt;[EDU-3]&lt;/font&gt;&amp;nbsp;&lt;font color=&quot;#ff3333&quot;&gt;[EDU-2]&amp;nbsp;&lt;/font&gt;The appointment ... to 10.&amp;nbsp;&amp;nbsp;&lt;font color=&quot;#ff8000&quot;&gt;[conjuction]&lt;/font&gt;&lt;font color=&quot;#ff0000&quot;&gt; [EDU-1]&lt;/font&gt;&amp;nbsp;&lt;font color=&quot;#0000cc&quot;&gt;[MASK]&lt;/font&gt;&lt;font color=&quot;#ff0000&quot;&gt; [EDU-4]&lt;/font&gt;&lt;font color=&quot;#ff8000&quot;&gt;&amp;nbsp;[elaboration]&lt;/font&gt;&amp;nbsp;&lt;/font&gt;" style="text;html=1;align=center;verticalAlign=middle;resizable=0;points=[];autosize=1;strokeColor=none;fillColor=none;fontSize=36;" vertex="1" parent="tdUAThzpUZN2uWornedb-1">
          <mxGeometry x="540" y="765.5" width="660" height="60" as="geometry" />
        </mxCell>
        <mxCell id="ZDn8CB6UmshJGRdJ2p5L-5" value="&lt;font style=&quot;font-size: 14px&quot;&gt;&lt;font color=&quot;#ff3333&quot;&gt;[EDU-3]&lt;/font&gt;&amp;nbsp;&lt;font color=&quot;#ff3333&quot;&gt;[EDU-2]&amp;nbsp;&lt;/font&gt;The appointment ... to 10.&amp;nbsp;&amp;nbsp;&lt;font color=&quot;#ff8000&quot;&gt;[conjuction]&lt;/font&gt;&lt;font color=&quot;#ff0000&quot;&gt;&amp;nbsp;[EDU-1]&lt;/font&gt;&amp;nbsp;&lt;font color=&quot;#0000cc&quot;&gt;[MASK]&lt;/font&gt;&lt;font color=&quot;#ff0000&quot;&gt;&amp;nbsp;[EDU-4]&lt;/font&gt;&lt;font color=&quot;#ff8000&quot;&gt;&amp;nbsp;[elaboration]&lt;/font&gt;&lt;font color=&quot;#ff8000&quot;&gt;&amp;nbsp;&lt;/font&gt;[END]&amp;nbsp;&lt;/font&gt;" style="text;html=1;align=center;verticalAlign=middle;resizable=0;points=[];autosize=1;strokeColor=none;fillColor=none;fontSize=36;" vertex="1" parent="tdUAThzpUZN2uWornedb-1">
          <mxGeometry x="550" y="584" width="650" height="60" as="geometry" />
        </mxCell>
        <mxCell id="_PYYw3TsgrTjqw1lvINo-0" value="&lt;font&gt;&lt;font style=&quot;font-size: 24px&quot;&gt;Longformer Encoder&lt;/font&gt;&lt;br&gt;&lt;/font&gt;" style="rounded=1;whiteSpace=wrap;html=1;fillColor=#dae8fc;strokeColor=#6c8ebf;" vertex="1" parent="tdUAThzpUZN2uWornedb-1">
          <mxGeometry x="-470" y="-40" width="1020" height="100" as="geometry" />
        </mxCell>
        <mxCell id="_PYYw3TsgrTjqw1lvINo-1" value="&lt;font style=&quot;font-size: 18px&quot;&gt;&lt;font color=&quot;#ff3333&quot;&gt;[para1]&lt;/font&gt;&amp;nbsp;Paraphrase generation ... generation.&amp;nbsp;&lt;font color=&quot;#ff3333&quot;&gt;[para2]&lt;/font&gt;&amp;nbsp;Document-level ... model...&amp;nbsp;&lt;font color=&quot;#ff3333&quot;&gt;[para50]&lt;/font&gt;&amp;nbsp;Most of the previous ... graph GRU.&lt;br&gt;&amp;nbsp;&lt;/font&gt;" style="text;html=1;align=center;verticalAlign=middle;resizable=0;points=[];autosize=1;strokeColor=none;fillColor=none;fontSize=36;" vertex="1" parent="tdUAThzpUZN2uWornedb-1">
          <mxGeometry x="-470" y="70" width="1010" height="100" as="geometry" />
        </mxCell>
        <mxCell id="_PYYw3TsgrTjqw1lvINo-2" value="&lt;font&gt;&lt;font style=&quot;font-size: 24px&quot;&gt;Transformer Decoder&lt;/font&gt;&lt;br&gt;&lt;/font&gt;" style="rounded=1;whiteSpace=wrap;html=1;fillColor=#dae8fc;strokeColor=#6c8ebf;" vertex="1" parent="tdUAThzpUZN2uWornedb-1">
          <mxGeometry x="700" y="-40" width="330" height="100" as="geometry" />
        </mxCell>
        <mxCell id="_PYYw3TsgrTjqw1lvINo-3" value="" style="shape=flexArrow;endArrow=classic;html=1;rounded=0;fontSize=14;fontColor=#0000CC;fillColor=#f8cecc;strokeColor=#b85450;" edge="1" parent="tdUAThzpUZN2uWornedb-1">
          <mxGeometry width="50" height="50" relative="1" as="geometry">
            <mxPoint x="570" y="9.289999999999964" as="sourcePoint" />
            <mxPoint x="690" y="9" as="targetPoint" />
          </mxGeometry>
        </mxCell>
        <mxCell id="_PYYw3TsgrTjqw1lvINo-4" value="&lt;font color=&quot;#000000&quot; style=&quot;font-size: 12px&quot;&gt;[START]&lt;/font&gt;&lt;font color=&quot;#00994d&quot; style=&quot;font-size: 12px&quot;&gt;&amp;nbsp;[Secion1]&lt;/font&gt;&lt;span style=&quot;color: rgb(255 , 51 , 51) ; font-size: 12px&quot;&gt;&amp;nbsp;&lt;/span&gt;&lt;font color=&quot;#cccc00&quot; style=&quot;font-size: 12px&quot;&gt;[Subsection1]&lt;/font&gt;&lt;span style=&quot;color: rgb(255 , 51 , 51) ; font-size: 12px&quot;&gt;&amp;nbsp;[para7] [para13]&amp;nbsp;&lt;/span&gt;&lt;font color=&quot;#cccc00&quot; style=&quot;font-size: 12px&quot;&gt;[Subsection2]&lt;/font&gt;&lt;span style=&quot;color: rgb(255 , 51 , 51) ; font-size: 12px&quot;&gt;&amp;nbsp;[para1] ...&amp;nbsp;&lt;/span&gt;&lt;font color=&quot;#009900&quot; style=&quot;font-size: 12px&quot;&gt;[Section7]&lt;/font&gt;&lt;span style=&quot;color: rgb(255 , 51 , 51) ; font-size: 12px&quot;&gt;&amp;nbsp;[para27]&amp;nbsp;&lt;/span&gt;" style="text;html=1;align=center;verticalAlign=middle;resizable=0;points=[];autosize=1;strokeColor=none;fillColor=none;fontSize=36;" vertex="1" parent="tdUAThzpUZN2uWornedb-1">
          <mxGeometry x="595" y="70" width="520" height="60" as="geometry" />
        </mxCell>
        <mxCell id="_PYYw3TsgrTjqw1lvINo-5" value="&lt;font color=&quot;#009900&quot; style=&quot;font-size: 12px&quot;&gt;[Secion1]&lt;/font&gt;&lt;span style=&quot;color: rgb(255 , 51 , 51) ; font-size: 12px&quot;&gt;&amp;nbsp;&lt;/span&gt;&lt;font color=&quot;#cccc00&quot; style=&quot;font-size: 12px&quot;&gt;[Subsection1]&lt;/font&gt;&lt;span style=&quot;color: rgb(255 , 51 , 51) ; font-size: 12px&quot;&gt;&amp;nbsp;[para7] [para13]&amp;nbsp;&lt;/span&gt;&lt;font color=&quot;#cccc00&quot; style=&quot;font-size: 12px&quot;&gt;[Subsection2]&lt;/font&gt;&lt;span style=&quot;color: rgb(255 , 51 , 51) ; font-size: 12px&quot;&gt;&amp;nbsp;[para1] ...&amp;nbsp;&lt;/span&gt;&lt;font color=&quot;#009900&quot; style=&quot;font-size: 12px&quot;&gt;[Section7]&lt;/font&gt;&lt;span style=&quot;color: rgb(255 , 51 , 51) ; font-size: 12px&quot;&gt;&amp;nbsp;[para27]&amp;nbsp;&lt;/span&gt;&lt;font color=&quot;#000000&quot; style=&quot;font-size: 12px&quot;&gt;[END]&lt;/font&gt;" style="text;html=1;align=center;verticalAlign=middle;resizable=0;points=[];autosize=1;strokeColor=none;fillColor=none;fontSize=36;" vertex="1" parent="tdUAThzpUZN2uWornedb-1">
          <mxGeometry x="605" y="-120" width="500" height="60" as="geometry" />
        </mxCell>
      </root>
    </mxGraphModel>
  </diagram>
  <diagram id="cWeH0LJBdi-lCnzjCAAt" name="Page-3">
    <mxGraphModel dx="3137" dy="1950" grid="1" gridSize="10" guides="1" tooltips="1" connect="1" arrows="1" fold="1" page="1" pageScale="1" pageWidth="827" pageHeight="1169" math="0" shadow="0">
      <root>
        <mxCell id="mguC_MLcZzLQHNyK14J4-0" />
        <mxCell id="mguC_MLcZzLQHNyK14J4-1" parent="mguC_MLcZzLQHNyK14J4-0" />
        <mxCell id="mguC_MLcZzLQHNyK14J4-2" value="&lt;font&gt;&lt;font style=&quot;font-size: 36px&quot;&gt;Longformer Encoder&lt;/font&gt;&lt;br&gt;&lt;/font&gt;" style="rounded=1;whiteSpace=wrap;html=1;shadow=1;" vertex="1" parent="mguC_MLcZzLQHNyK14J4-1">
          <mxGeometry x="-813" y="-440" width="470" height="120" as="geometry" />
        </mxCell>
        <mxCell id="mguC_MLcZzLQHNyK14J4-5" value="" style="shape=flexArrow;endArrow=classic;html=1;rounded=0;fontSize=14;" edge="1" parent="mguC_MLcZzLQHNyK14J4-1">
          <mxGeometry width="50" height="50" relative="1" as="geometry">
            <mxPoint x="-320" y="-380.13" as="sourcePoint" />
            <mxPoint x="-100" y="-381" as="targetPoint" />
          </mxGeometry>
        </mxCell>
        <mxCell id="mguC_MLcZzLQHNyK14J4-8" value="&lt;font style=&quot;font-size: 22px&quot; face=&quot;Comic Sans MS&quot;&gt;&lt;i&gt;&lt;font color=&quot;#ff3333&quot; style=&quot;font-size: 22px&quot;&gt;[para-1]&lt;/font&gt; x&lt;sub&gt;1&lt;/sub&gt;&amp;nbsp;&lt;font color=&quot;#ff0000&quot; style=&quot;font-size: 22px&quot;&gt;[para-2]&lt;/font&gt; x&lt;sub&gt;2&lt;/sub&gt;&amp;nbsp;......&amp;nbsp;&lt;font color=&quot;#ff0000&quot; style=&quot;font-size: 22px&quot;&gt;[para-n]&lt;/font&gt; x&lt;sub&gt;n&lt;/sub&gt;&lt;/i&gt;&lt;/font&gt;" style="rounded=0;whiteSpace=wrap;html=1;fontSize=36;shadow=0;dashed=1;" vertex="1" parent="mguC_MLcZzLQHNyK14J4-1">
          <mxGeometry x="-813" y="-280" width="470" height="50" as="geometry" />
        </mxCell>
        <mxCell id="mguC_MLcZzLQHNyK14J4-11" style="edgeStyle=orthogonalEdgeStyle;rounded=1;sketch=0;orthogonalLoop=1;jettySize=auto;html=1;exitX=0;exitY=0.5;exitDx=0;exitDy=0;fontFamily=Comic Sans MS;fontSize=24;fontColor=#000000;curved=1;dashed=1;dashPattern=1 1;" edge="1" parent="mguC_MLcZzLQHNyK14J4-1" source="mguC_MLcZzLQHNyK14J4-9">
          <mxGeometry relative="1" as="geometry">
            <mxPoint x="-680" y="-229" as="targetPoint" />
          </mxGeometry>
        </mxCell>
        <mxCell id="mguC_MLcZzLQHNyK14J4-9" value="&lt;font color=&quot;#000000&quot;&gt;&lt;b&gt;Long Text x&lt;/b&gt;&lt;span style=&quot;font-size: 20px&quot;&gt;&lt;sub style=&quot;font-weight: bold&quot;&gt;1&lt;/sub&gt;&lt;b&gt;: &lt;/b&gt;Paraphrase generation is an important task in nauture ... with more diversity and semantic preservation.&amp;nbsp;&lt;/span&gt;&lt;/font&gt;" style="rounded=0;whiteSpace=wrap;html=1;glass=0;dashed=1;sketch=0;fontFamily=Comic Sans MS;fontSize=24;fontColor=#FF0000;" vertex="1" parent="mguC_MLcZzLQHNyK14J4-1">
          <mxGeometry x="-940" y="-160" width="400" height="110" as="geometry" />
        </mxCell>
        <mxCell id="mguC_MLcZzLQHNyK14J4-13" style="edgeStyle=orthogonalEdgeStyle;curved=1;rounded=1;sketch=0;orthogonalLoop=1;jettySize=auto;html=1;exitX=0;exitY=0.5;exitDx=0;exitDy=0;entryX=0.916;entryY=0.989;entryDx=0;entryDy=0;entryPerimeter=0;dashed=1;dashPattern=1 1;fontFamily=Comic Sans MS;fontSize=24;fontColor=#000000;" edge="1" parent="mguC_MLcZzLQHNyK14J4-1" source="mguC_MLcZzLQHNyK14J4-12" target="mguC_MLcZzLQHNyK14J4-8">
          <mxGeometry relative="1" as="geometry" />
        </mxCell>
        <mxCell id="mguC_MLcZzLQHNyK14J4-12" value="&lt;font color=&quot;#000000&quot;&gt;&lt;b&gt;Long Text x&lt;span style=&quot;font-size: 16.6667px&quot;&gt;n&lt;/span&gt;&lt;/b&gt;&lt;span style=&quot;font-size: 20px&quot;&gt;&lt;b&gt;: &lt;/b&gt;Our graph GRU is a stack of L identical layers, and each layer...&amp;nbsp; describe the graph GRU in detail.&amp;nbsp;&lt;/span&gt;&lt;/font&gt;" style="rounded=0;whiteSpace=wrap;html=1;glass=0;dashed=1;sketch=0;fontFamily=Comic Sans MS;fontSize=24;fontColor=#FF0000;" vertex="1" parent="mguC_MLcZzLQHNyK14J4-1">
          <mxGeometry x="-490" y="-160" width="400" height="110" as="geometry" />
        </mxCell>
        <mxCell id="mguC_MLcZzLQHNyK14J4-14" value="&lt;font&gt;&lt;font style=&quot;font-size: 36px&quot;&gt;Transformer Decoder&lt;/font&gt;&lt;br&gt;&lt;/font&gt;" style="rounded=1;whiteSpace=wrap;html=1;shadow=1;" vertex="1" parent="mguC_MLcZzLQHNyK14J4-1">
          <mxGeometry x="-70" y="-440" width="470" height="120" as="geometry" />
        </mxCell>
        <mxCell id="mguC_MLcZzLQHNyK14J4-15" value="&lt;font face=&quot;Comic Sans MS&quot;&gt;&lt;span style=&quot;font-size: 20px&quot;&gt;&lt;i&gt;[start] &lt;font color=&quot;#0000cc&quot; style=&quot;font-size: 20px&quot;&gt;[section-1]&lt;/font&gt;&lt;font color=&quot;#ff3333&quot; style=&quot;font-size: 20px&quot;&gt; &lt;/font&gt;&lt;font color=&quot;#00cc00&quot; style=&quot;font-size: 20px&quot;&gt;[subsection-1]&lt;/font&gt;&lt;font color=&quot;#ff3333&quot; style=&quot;font-size: 20px&quot;&gt; [para-7] [para-13] &lt;/font&gt;&lt;font color=&quot;#00cc00&quot; style=&quot;font-size: 20px&quot;&gt;[subsection-2]&lt;/font&gt;&lt;font color=&quot;#ff3333&quot; style=&quot;font-size: 20px&quot;&gt; [para-1] ... &lt;/font&gt;&lt;font color=&quot;#000099&quot; style=&quot;font-size: 20px&quot;&gt;[section-7]&lt;/font&gt;&lt;font color=&quot;#ff3333&quot; style=&quot;font-size: 20px&quot;&gt; [para-27]&lt;/font&gt;&lt;/i&gt;&lt;/span&gt;&lt;/font&gt;" style="rounded=0;whiteSpace=wrap;html=1;fontSize=36;shadow=0;dashed=1;" vertex="1" parent="mguC_MLcZzLQHNyK14J4-1">
          <mxGeometry x="-280" y="-280" width="940" height="50" as="geometry" />
        </mxCell>
        <mxCell id="mguC_MLcZzLQHNyK14J4-16" value="&lt;font face=&quot;Comic Sans MS&quot;&gt;&lt;span style=&quot;font-size: 20px&quot;&gt;&lt;i&gt;&lt;font color=&quot;#0000cc&quot; style=&quot;font-size: 20px&quot;&gt;[section-1]&lt;/font&gt;&lt;font color=&quot;#ff3333&quot; style=&quot;font-size: 20px&quot;&gt; &lt;/font&gt;&lt;font color=&quot;#00cc00&quot; style=&quot;font-size: 20px&quot;&gt;[subsection-1]&lt;/font&gt;&lt;font color=&quot;#ff3333&quot; style=&quot;font-size: 20px&quot;&gt; [para-7] [para-13] &lt;/font&gt;&lt;font color=&quot;#00cc00&quot; style=&quot;font-size: 20px&quot;&gt;[subsection-2]&lt;/font&gt;&lt;font color=&quot;#ff3333&quot; style=&quot;font-size: 20px&quot;&gt; [para-1] ... &lt;/font&gt;&lt;font color=&quot;#000099&quot; style=&quot;font-size: 20px&quot;&gt;[section-7]&lt;/font&gt;&lt;font color=&quot;#ff3333&quot; style=&quot;font-size: 20px&quot;&gt; [para-27] &lt;/font&gt;[end]&lt;/i&gt;&lt;/span&gt;&lt;/font&gt;" style="rounded=0;whiteSpace=wrap;html=1;fontSize=36;shadow=0;dashed=1;" vertex="1" parent="mguC_MLcZzLQHNyK14J4-1">
          <mxGeometry x="-275" y="-550" width="930" height="50" as="geometry" />
        </mxCell>
        <mxCell id="mguC_MLcZzLQHNyK14J4-17" value="" style="shape=flexArrow;endArrow=classic;html=1;rounded=1;sketch=0;fontFamily=Comic Sans MS;fontSize=22;fontColor=#000000;curved=1;fillColor=default;" edge="1" parent="mguC_MLcZzLQHNyK14J4-1">
          <mxGeometry width="50" height="50" relative="1" as="geometry">
            <mxPoint x="-740.29" y="-290" as="sourcePoint" />
            <mxPoint x="-740.71" y="-350" as="targetPoint" />
            <Array as="points">
              <mxPoint x="-740.29" y="-300" />
            </Array>
          </mxGeometry>
        </mxCell>
        <mxCell id="mguC_MLcZzLQHNyK14J4-18" value="" style="shape=flexArrow;endArrow=classic;html=1;rounded=1;sketch=0;fontFamily=Comic Sans MS;fontSize=22;fontColor=#000000;curved=1;fillColor=default;" edge="1" parent="mguC_MLcZzLQHNyK14J4-1">
          <mxGeometry width="50" height="50" relative="1" as="geometry">
            <mxPoint x="-600.29" y="-291" as="sourcePoint" />
            <mxPoint x="-600.71" y="-351" as="targetPoint" />
            <Array as="points">
              <mxPoint x="-600.29" y="-301" />
            </Array>
          </mxGeometry>
        </mxCell>
        <mxCell id="mguC_MLcZzLQHNyK14J4-19" value="" style="shape=flexArrow;endArrow=classic;html=1;rounded=1;sketch=0;fontFamily=Comic Sans MS;fontSize=22;fontColor=#000000;curved=1;fillColor=default;" edge="1" parent="mguC_MLcZzLQHNyK14J4-1">
          <mxGeometry width="50" height="50" relative="1" as="geometry">
            <mxPoint x="-470.28999999999996" y="-290" as="sourcePoint" />
            <mxPoint x="-470.71000000000004" y="-350" as="targetPoint" />
            <Array as="points">
              <mxPoint x="-470.28999999999996" y="-300" />
            </Array>
          </mxGeometry>
        </mxCell>
        <mxCell id="mguC_MLcZzLQHNyK14J4-20" value="" style="shape=flexArrow;endArrow=classic;html=1;rounded=1;sketch=0;fontFamily=Comic Sans MS;fontSize=22;fontColor=#000000;curved=1;fillColor=default;" edge="1" parent="mguC_MLcZzLQHNyK14J4-1">
          <mxGeometry width="50" height="50" relative="1" as="geometry">
            <mxPoint x="29.710000000000036" y="-290" as="sourcePoint" />
            <mxPoint x="29.289999999999964" y="-350" as="targetPoint" />
            <Array as="points">
              <mxPoint x="29.710000000000036" y="-300" />
            </Array>
          </mxGeometry>
        </mxCell>
        <mxCell id="mguC_MLcZzLQHNyK14J4-21" value="" style="shape=flexArrow;endArrow=classic;html=1;rounded=1;sketch=0;fontFamily=Comic Sans MS;fontSize=22;fontColor=#000000;curved=1;fillColor=default;" edge="1" parent="mguC_MLcZzLQHNyK14J4-1">
          <mxGeometry width="50" height="50" relative="1" as="geometry">
            <mxPoint x="159.70999999999958" y="-290" as="sourcePoint" />
            <mxPoint x="159.28999999999996" y="-350" as="targetPoint" />
            <Array as="points">
              <mxPoint x="159.71000000000004" y="-300" />
            </Array>
          </mxGeometry>
        </mxCell>
        <mxCell id="mguC_MLcZzLQHNyK14J4-22" value="" style="shape=flexArrow;endArrow=classic;html=1;rounded=1;sketch=0;fontFamily=Comic Sans MS;fontSize=22;fontColor=#000000;curved=1;fillColor=default;" edge="1" parent="mguC_MLcZzLQHNyK14J4-1">
          <mxGeometry width="50" height="50" relative="1" as="geometry">
            <mxPoint x="279.7099999999996" y="-290" as="sourcePoint" />
            <mxPoint x="279.28999999999996" y="-350" as="targetPoint" />
            <Array as="points">
              <mxPoint x="279.71000000000004" y="-300" />
            </Array>
          </mxGeometry>
        </mxCell>
        <mxCell id="mguC_MLcZzLQHNyK14J4-23" value="" style="shape=flexArrow;endArrow=classic;html=1;rounded=1;sketch=0;fontFamily=Comic Sans MS;fontSize=22;fontColor=#000000;curved=1;fillColor=default;" edge="1" parent="mguC_MLcZzLQHNyK14J4-1">
          <mxGeometry width="50" height="50" relative="1" as="geometry">
            <mxPoint x="29.70999999999958" y="-430" as="sourcePoint" />
            <mxPoint x="29.289999999999964" y="-490" as="targetPoint" />
            <Array as="points">
              <mxPoint x="29.710000000000036" y="-440" />
            </Array>
          </mxGeometry>
        </mxCell>
        <mxCell id="mguC_MLcZzLQHNyK14J4-24" value="" style="shape=flexArrow;endArrow=classic;html=1;rounded=1;sketch=0;fontFamily=Comic Sans MS;fontSize=22;fontColor=#000000;curved=1;fillColor=default;" edge="1" parent="mguC_MLcZzLQHNyK14J4-1">
          <mxGeometry width="50" height="50" relative="1" as="geometry">
            <mxPoint x="159.70999999999958" y="-430" as="sourcePoint" />
            <mxPoint x="159.28999999999996" y="-490" as="targetPoint" />
            <Array as="points">
              <mxPoint x="159.71000000000004" y="-440" />
            </Array>
          </mxGeometry>
        </mxCell>
        <mxCell id="mguC_MLcZzLQHNyK14J4-25" value="" style="shape=flexArrow;endArrow=classic;html=1;rounded=1;sketch=0;fontFamily=Comic Sans MS;fontSize=22;fontColor=#000000;curved=1;fillColor=default;" edge="1" parent="mguC_MLcZzLQHNyK14J4-1">
          <mxGeometry width="50" height="50" relative="1" as="geometry">
            <mxPoint x="279.7099999999996" y="-430" as="sourcePoint" />
            <mxPoint x="279.28999999999996" y="-490" as="targetPoint" />
            <Array as="points">
              <mxPoint x="279.71000000000004" y="-440" />
            </Array>
          </mxGeometry>
        </mxCell>
      </root>
    </mxGraphModel>
  </diagram>
</mxfile>
